<svg xmlns="http://www.w3.org/2000/svg" viewBox="0 0 935.33 863.86">
  <defs>
    <style>
      .cls-1 {
      fill: #bac8ff;
      }
      .cls-2, .cls-5 {
      fill: #5757ea;
      }
      .cls-10, .cls-11, .cls-3, .cls-6, .cls-7, .cls-8 {
      fill: none;
      stroke-linecap: round;
      }
      .cls-3 {
      stroke: #e8e8e8;
      }
      .cls-11, .cls-3 {
      stroke-linejoin: round;
      }
      .cls-10, .cls-3, .cls-8 {
      stroke-width: 1.13px;
      }
      .cls-4 {
      fill: #8d8fff;
      }
      .cls-5 {
      opacity: 0.3;
      }
      .cls-6 {
      stroke: #506ed8;
      }
      .cls-10, .cls-6, .cls-7, .cls-8 {
      stroke-miterlimit: 10;
      }
      .cls-6, .cls-7 {
      stroke-width: 5.38px;
      }
      .cls-10, .cls-7 {
      stroke: #fff;
      }
      .cls-8 {
      stroke: #4747a8;
      }
      .cls-9 {
      fill: #1818a0;
      }
      .cls-11 {
      stroke: #2d2b82;
      stroke-width: 1.33px;
      }
    </style>
  </defs>
  <g id="Layer_2" data-name="Layer 2">
    <g id="Layer_1-2" data-name="Layer 1">
      <g>
        <path class="cls-1"
          d="M804.18,235.27c-13,91.32-45.89,117.53-37.7,185.33,5.56,46,31.42,83.71,50.54,137.18,23.64,66.08-5.54,193.26-174,199.76-94,3.62-190.63-49.92-282-27.86C197.54,769.17,126.53,686,115.12,642c-35.56-137.39,90.53-157.31,29.8-260.87C56.34,230,69.89-9.34,354.45,70.18,503.69,111.89,622.66-59.29,742.19,22.4,822.06,77,813.65,169,804.18,235.27Z" />
        <circle class="cls-1" cx="100.92" cy="58.09" r="26.81" />
        <path class="cls-1"
          d="M93.13,119.23A14.34,14.34,0,1,1,78.8,104.89,14.34,14.34,0,0,1,93.13,119.23Z" />
        <circle class="cls-1" cx="842.3" cy="546.01" r="16.74" />
        <path class="cls-1" d="M866.51,586.8a9.7,9.7,0,1,1-9.7-9.7A9.7,9.7,0,0,1,866.51,586.8Z" />
      </g>
      <g>
        <path class="cls-2"
          d="M828.53,7h-64a11.13,11.13,0,0,0-11.13,11.14V51.21L741.61,71a2.19,2.19,0,0,0,2.46,3.23l19-5.17a11.19,11.19,0,0,0,1.43.1h64A11.14,11.14,0,0,0,839.67,58V18.13A11.14,11.14,0,0,0,828.53,7Z" />
        <path class="cls-3"
          d="M783.56,40.65a4.83,4.83,0,1,1-4.83-4.83A4.83,4.83,0,0,1,783.56,40.65Z" />
        <path class="cls-3" d="M802.4,40.65a4.83,4.83,0,1,1-4.83-4.83A4.82,4.82,0,0,1,802.4,40.65Z" />
        <path class="cls-3"
          d="M821.06,40.65a4.83,4.83,0,1,1-4.82-4.83A4.82,4.82,0,0,1,821.06,40.65Z" />
      </g>
      <g>
        <path class="cls-2"
          d="M717.84,764.75l-452.23-1a15.48,15.48,0,0,1-15.51-15.44l1.43-648.17A15.48,15.48,0,0,1,267,84.58l452.24,1.06a15.47,15.47,0,0,1,15.51,15.44l-1.43,648.17C733.59,757.82,726.39,764.75,717.84,764.75Z" />
        <path class="cls-4"
          d="M224.52,122.07l-1.37,601.61A20.37,20.37,0,0,0,243.46,744l444.6.86a17.83,17.83,0,0,0,18-17.89l1.37-604.56a17.11,17.11,0,0,0-17.1-17.08l-448.42-1A17.32,17.32,0,0,0,224.52,122.07Zm54,558.68A13.68,13.68,0,0,1,263,665.3a13.47,13.47,0,0,1,11.17-11.23,13.68,13.68,0,0,1,15.51,15.45A13.48,13.48,0,0,1,278.54,680.75Zm.18-99.29A13.68,13.68,0,0,1,263.21,566a13.48,13.48,0,0,1,11.18-11.23,13.68,13.68,0,0,1,15.5,15.45A13.47,13.47,0,0,1,278.72,581.46Zm.16-81.91a13.67,13.67,0,0,1-15.51-15.44,13.47,13.47,0,0,1,11.18-11.23,13.51,13.51,0,0,1,4.33,26.67Zm.21-99.58a13.68,13.68,0,0,1-15.51-15.45,13.47,13.47,0,0,1,11.17-11.23,13.68,13.68,0,0,1,15.51,15.45C289.37,394.54,284.75,399.37,279.09,400Zm.36-92.5A13.67,13.67,0,0,1,263.94,292a13.47,13.47,0,0,1,11.17-11.23,13.51,13.51,0,0,1,4.34,26.67Zm.17-99.29a13.67,13.67,0,0,1-15.5-15.44,13.46,13.46,0,0,1,11.17-11.23,13.51,13.51,0,1,1,4.33,26.67Z" />
        <path class="cls-5"
          d="M707.51,196.71C658.12,298.91,515.61,556,289.78,666c-.06.58.18,1.19.12,1.78a13.27,13.27,0,0,1-13.46,13.35,13,13,0,0,1-9.84-4.55C252.4,682.78,238,688.08,223.06,693v31.53A19.26,19.26,0,0,0,242.59,744L706,745Z" />
        <path class="cls-6"
          d="M224,248.14c-16.29-4.92-27.9-18.19-27.83-33.21-.06-19.46,19-35.48,42.54-35.42,19.46-.06,35.73,10.74,40.68,25.69" />
        <path class="cls-6"
          d="M223.64,343c-16.29-4.92-27.9-18.19-27.83-33.21-.06-19.46,19-35.48,42.54-35.42,19.45-.06,35.73,10.74,40.68,25.69" />
        <path class="cls-6"
          d="M223.47,439.34c-16.29-4.91-27.89-18.19-27.82-33.21-.07-19.45,19-35.48,42.53-35.41,19.46-.07,35.73,10.74,40.68,25.69" />
        <path class="cls-6"
          d="M223.16,534.2C206.87,529.28,195.27,516,195.34,501c-.07-19.46,19-35.48,42.53-35.42,19.46-.06,35.73,10.75,40.68,25.69" />
        <path class="cls-6"
          d="M222.94,616.69c-16.29-4.91-27.89-18.19-27.82-33.21-.07-19.46,19-35.48,42.53-35.42,19.46-.06,35.73,10.75,40.68,25.69" />
        <path class="cls-6"
          d="M222.86,715.11c-16.3-4.92-27.9-18.19-27.83-33.21-.07-19.46,19-35.48,42.54-35.42,19.45-.06,35.73,10.74,40.68,25.69" />
        <line class="cls-7" x1="323.05" y1="207.19" x2="627.69" y2="207.82" />
        <line class="cls-7" x1="322.76" y1="304.7" x2="627.4" y2="305.33" />
        <line class="cls-7" x1="322.54" y1="395.73" x2="627.19" y2="396.37" />
        <line class="cls-7" x1="323.07" y1="485.37" x2="628" y2="486.04" />
        <line class="cls-7" x1="322.13" y1="574.86" x2="626.77" y2="575.5" />
        <line class="cls-7" x1="321.87" y1="672.08" x2="626.8" y2="672.75" />
      </g>
      <g>
        <path class="cls-4"
          d="M72.52,768.73s5.18-19.53-10.14-24-36.2-4.39-42,9.07,11.85,12.61,23.69,11.73S61.38,784.68,72.52,768.73Z" />
        <path class="cls-4"
          d="M76.87,715.64s7.21-6.61,6.56-29.16S71.8,626.42,53.8,634.8s-8.76,53.09.81,69.77S76.87,715.64,76.87,715.64Z" />
        <path class="cls-8" d="M61.47,664.12s27.18,88.07,23.89,150c0,0-2.22-58.79-43.74-62.49" />
        <path class="cls-4"
          d="M121.52,759.12s-12.84-15.6-.75-26,31.08-19.07,42-9.25-5.52,16.41-16.66,20.54S138.29,769,121.52,759.12Z" />
        <path class="cls-8" d="M150.48,729.47s-47.77,14.78-44.1,71.64" />
        <rect class="cls-9" x="53.83" y="798.34" width="76.03" height="15.16" rx="4.36" />
        <path class="cls-9"
          d="M65.83,863.34l53.14-.11a4.37,4.37,0,0,0,4.35-4.38l-.23-46.11H61.35L61.46,859A4.37,4.37,0,0,0,65.83,863.34Z" />
        <line class="cls-10" x1="122.97" y1="813.62" x2="67.36" y2="813.62" />
      </g>
      <line class="cls-11" x1="934.67" y1="863.2" x2="0.67" y2="863.2" />
    </g>
  </g>
</svg>