<?xml version="1.0" encoding="utf-8"?>
<!-- Generator: Adobe Illustrator 26.0.3, SVG Export Plug-In . SVG Version: 6.00 Build 0)  -->
<svg version="1.1" id="Layer_1" xmlns="http://www.w3.org/2000/svg" xmlns:xlink="http://www.w3.org/1999/xlink" x="0px" y="0px"
	 viewBox="0 0 1080 1080" style="enable-background:new 0 0 1080 1080;" xml:space="preserve">
<style type="text/css">
	.st0{fill:#F8F9FA;}
	.st1{fill:#DEE2E6;}
	.st2{fill:#5C7CFA;}
</style>
<g>
	<path class="st0" d="M887.8,1025.6H192.2c-76.1,0-137.8-61.7-137.8-137.8V192.2c0-76.1,61.7-137.8,137.8-137.8h695.7
		c76.1,0,137.8,61.7,137.8,137.8v695.7C1025.6,963.9,963.9,1025.6,887.8,1025.6z"/>
	<path class="st1" d="M887.8,1025.7l-456.1,0.5l-228,0.2h-7.1c-2.4,0-4.7,0-7.1-0.1c-2.4-0.1-4.8-0.1-7.2-0.3l-3.6-0.3
		c-1.2-0.1-2.4-0.3-3.6-0.4c-9.5-1.2-18.9-3.3-27.9-6.4c-18.1-6.2-34.9-16.2-48.9-29.1c-14.1-13-25.4-28.8-33.1-46.3
		s-11.7-36.6-11.7-55.7l0.5-456v-228v-7.1c0-2.4,0-4.7,0.1-7.1c0.1-2.4,0.1-4.8,0.3-7.1l0.3-3.6c0.1-1.2,0.3-2.4,0.4-3.5
		c1.1-9.5,3.3-18.8,6.4-27.8c6.2-18,16.1-34.8,29-48.8s28.7-25.4,46.2-33.1C154.1,58,173.2,54,192.3,54l456.1-0.4l228-0.1h7.1
		c2.4,0,4.7,0,7.1,0.1c2.4,0.1,4.8,0.1,7.2,0.3l3.6,0.3c1.2,0.1,2.4,0.3,3.6,0.4c9.5,1.2,18.9,3.3,27.9,6.4
		c18.1,6.2,34.9,16.2,49,29.2s25.5,28.9,33.2,46.4s11.7,36.7,11.7,55.8c0,152-0.1,304-0.4,456.1l-0.4,228v7.1c0,2.4,0,4.7-0.1,7.1
		c-0.1,2.4-0.1,4.8-0.3,7.1l-0.3,3.6c-0.1,1.2-0.3,2.4-0.4,3.5c-1.2,9.4-3.3,18.8-6.4,27.8c-6.2,18-16.1,34.7-29,48.7
		s-28.7,25.3-46.1,32.9C925.9,1021.8,906.8,1025.8,887.8,1025.7z M887.8,1025.5c19,0,38-4,55.3-11.6c17.4-7.7,33.1-19,46-32.9
		s22.7-30.6,28.9-48.6c3.1-9,5.2-18.3,6.3-27.7c0.1-1.2,0.3-2.3,0.4-3.5l0.3-3.5c0.2-2.4,0.3-4.7,0.3-7.1c0.1-2.4,0.1-4.7,0.1-7.1
		v-7.1l-0.4-228c-0.3-152-0.4-304-0.4-456.1c0-18.9-3.9-37.7-11.5-55s-18.8-32.9-32.7-45.7S950,69,932.1,62.9
		c-8.9-3-18.2-5.2-27.5-6.3c-1.2-0.1-2.3-0.3-3.5-0.4l-3.5-0.3c-2.3-0.2-4.7-0.3-7.1-0.3c-2.3-0.1-4.7-0.1-7.1-0.1h-7.1l-228-0.1
		L192.2,55c-18.9,0-37.9,3.9-55.2,11.5s-33.1,18.9-45.9,32.8c-12.9,13.9-22.7,30.5-28.9,48.5c-3.1,9-5.2,18.2-6.4,27.6
		c-0.1,1.2-0.3,2.3-0.4,3.5l-0.3,3.5c-0.2,2.4-0.3,4.7-0.3,7.1c-0.1,2.4-0.1,4.7-0.1,7.1v7.1v228l0.5,456.1c0,18.9,3.9,37.8,11.6,55
		c7.6,17.3,18.8,32.9,32.7,45.7s30.5,22.6,48.3,28.7c8.9,3,18.2,5.2,27.5,6.3c1.2,0.1,2.3,0.3,3.5,0.4l3.5,0.3
		c2.4,0.2,4.7,0.3,7.1,0.3c2.4,0.1,4.7,0.1,7.1,0.1h7.1l228,0.2L887.8,1025.5z"/>
</g>
<g>
	<g>
		<polygon class="st2" points="664.4,704.5 663.4,703.4 582.3,622.3 581.2,621.3 500.1,540.1 583.3,456.9 664.4,538.1 665.5,539.1 
			747.6,621.3 830.8,538.1 914,454.9 830.8,371.7 747.6,454.9 666.5,373.7 665.5,372.7 583.3,290.6 500.1,373.7 416.9,456.9 
			333.7,540.1 415.9,622.3 416.9,623.3 498,704.5 499.1,705.5 580.2,786.6 497,869.8 580.2,953 663.4,869.8 746.6,786.6 		"/>
		<polygon class="st2" points="332.7,705.5 249.5,788.7 166.3,871.9 249.5,955.1 332.7,871.9 415.9,788.7 		"/>
		
			<rect x="688.6" y="149.3" transform="matrix(0.7071 -0.7071 0.7071 0.7071 71.7715 589.4796)" class="st2" width="117.7" height="117.7"/>
	</g>
</g>
</svg>
