<?xml version="1.0" encoding="utf-8"?>
<!-- Generator: Adobe Illustrator 26.0.3, SVG Export Plug-In . SVG Version: 6.00 Build 0)  -->
<svg version="1.1" id="Layer_1" xmlns="http://www.w3.org/2000/svg" xmlns:xlink="http://www.w3.org/1999/xlink" x="0px" y="0px"
	 viewBox="0 0 1080 1080" style="enable-background:new 0 0 1080 1080;" xml:space="preserve">
<style type="text/css">
	.st0{fill:#FFFFFF;}
</style>
<g id="Layer_1_00000036209597708035562980000018249573052185087146_">
</g>
<g id="Layer_2_00000170970730980649725430000009060938390663231147_">
	<g>
		<polygon class="st0" points="664.4,704.5 663.4,703.4 582.3,622.3 581.2,621.3 500.1,540.1 583.3,456.9 664.4,538.1 665.5,539.1 
			747.6,621.3 830.8,538.1 914,454.9 830.8,371.7 747.6,454.9 666.5,373.7 665.5,372.7 583.3,290.6 500.1,373.7 416.9,456.9 
			333.7,540.1 415.9,622.3 416.9,623.3 498,704.5 499.1,705.5 580.2,786.6 497,869.8 580.2,953 663.4,869.8 746.6,786.6 		"/>
		<polygon class="st0" points="332.7,705.5 249.5,788.7 166.3,871.9 249.5,955.1 332.7,871.9 415.9,788.7 		"/>
		
			<rect x="688.6" y="149.3" transform="matrix(0.7071 -0.7071 0.7071 0.7071 71.7715 589.4796)" class="st0" width="117.7" height="117.7"/>
	</g>
</g>
</svg>
