<svg xmlns="http://www.w3.org/2000/svg" viewBox="0 0 750.53 833.1">
  <g id="logoRoot" data-name="Layer 2">
    <g id="logoContent" data-name="Layer 1">
      <g>
        <polygon class="body"
          points="499.51 581.08 498.51 579.98 417.41 498.88 416.31 497.88 335.21 416.68 418.41 333.48 499.51 414.68 500.61 415.68 582.71 497.88 665.91 414.68 749.11 331.48 665.91 248.28 582.71 331.48 501.61 250.28 500.61 249.28 418.41 167.18 335.21 250.28 252.01 333.48 168.81 416.68 251.01 498.88 252.01 499.88 333.11 581.08 334.21 582.08 415.31 663.18 332.11 746.38 415.31 829.58 498.51 746.38 581.71 663.18 499.51 581.08" />
        <polygon class="leg"
          points="167.81 582.08 84.61 665.28 1.41 748.48 84.61 831.68 167.81 748.48 251.01 665.28 167.81 582.08" />
        <rect class="head" x="523.75" y="25.79" width="117.7" height="117.7"
          transform="translate(110.79 436.75) rotate(-45)" />
      </g>
    </g>
  </g>
</svg>